<svg xmlns="http://www.w3.org/2000/svg" xmlns:xlink="http://www.w3.org/1999/xlink" width="39" height="39" viewBox="0 0 39 39"><defs><style>.a{fill:#dfdfdf;}.b{clip-path:url(#a);}.c{fill:#5b5b5b;}.d,.f{fill:none;}.d{stroke:#5b5b5b;}.e{stroke:none;}</style><clipPath id="a"><circle class="a" cx="19.5" cy="19.5" r="19.5" transform="translate(1282 21)"/></clipPath></defs><g transform="translate(-1282 -21)"><g class="b"><g transform="translate(1212.52 27)"><path class="c" d="M99.932,29.641v2.792a.569.569,0,0,1-.569.569H78.6a.569.569,0,0,1-.569-.569V29.641a5.3,5.3,0,0,1,5.3-5.3A2.945,2.945,0,0,0,85.8,23a3.343,3.343,0,0,0,.473-2.084l.011-.026a7.041,7.041,0,0,1-4.349-6.507v-.223a1.754,1.754,0,0,1-1.778-1.745V9.455A9.844,9.844,0,0,1,82.807,2.27c3.048-2.938,7.878-2.7,11.377-1.126a.143.143,0,0,1,0,.262l-.912.375a.142.142,0,0,0,.039.273l.443.048a7.176,7.176,0,0,1,5.356,3.364.044.044,0,0,1-.007.052A4.3,4.3,0,0,0,97.869,8.53v3.778a1.848,1.848,0,0,1-1.849,1.848v.223a7.041,7.041,0,0,1-4.349,6.507l.011.026A3.341,3.341,0,0,0,92.155,23a2.945,2.945,0,0,0,2.472,1.341,5.3,5.3,0,0,1,5.3,5.3Z" transform="translate(0 0)"/><path class="c" d="M126.935,5.467a.044.044,0,0,1-.007.052A4.3,4.3,0,0,0,125.7,8.53v3.778a1.848,1.848,0,0,1-1.849,1.848c0-2.152,0-3.277,0-3.881a.568.568,0,0,0-.734-.544,7.64,7.64,0,0,1-3.889.229c-2.473-.538-3.174-1.507-5.191-1.991a3.463,3.463,0,0,0-4.285,3.4c0,.726.016,1.634.018,2.792a1.754,1.754,0,0,1-1.778-1.745V9.456a9.844,9.844,0,0,1,2.646-7.185c3.048-2.938,7.878-2.7,11.377-1.126a.142.142,0,0,1,0,.262l-.912.376a.142.142,0,0,0,.039.273l.443.048a7.175,7.175,0,0,1,5.356,3.364Z" transform="translate(-27.83 -0.001)"/><path class="c" d="M146.142,112.513a.568.568,0,0,1,.734.543c0,.625,0,1.807,0,4.1a7.04,7.04,0,1,1-14.081,0c0-1.3-.013-2.22-.018-3.015a3.463,3.463,0,0,1,4.285-3.4c2.018.484,2.718,1.454,5.191,1.991A7.641,7.641,0,0,0,146.142,112.513Z" transform="translate(-50.855 -102.782)"/><path class="c" d="M99.932,330.01V332.8a.569.569,0,0,1-.569.569H78.6a.569.569,0,0,1-.569-.569V330.01a5.3,5.3,0,0,1,5.3-5.3,2.945,2.945,0,0,0,2.472-1.341,4.882,4.882,0,0,0,6.351,0,2.944,2.944,0,0,0,2.472,1.341,5.3,5.3,0,0,1,5.3,5.3Z" transform="translate(0 -300.37)"/><path class="c" d="M283.3,432.194H281.6a.569.569,0,0,1,0-1.138H283.3a.569.569,0,0,1,0,1.138Z" transform="translate(-188.564 -400.401)"/><path class="c" d="M86.2,326.425a2.892,2.892,0,0,1-.847.131,5.318,5.318,0,0,0-5.331,5.285v.535a1,1,0,0,1-1,1H78.6a.569.569,0,0,1-.569-.569V330.01a5.3,5.3,0,0,1,5.3-5.3,2.945,2.945,0,0,0,2.472-1.341,4.926,4.926,0,0,0,.676.485A1.421,1.421,0,0,1,86.2,326.425Z" transform="translate(0 -300.37)"/><path class="c" d="M258.341,326.425a2.893,2.893,0,0,0,.847.131,5.318,5.318,0,0,1,5.331,5.285v.535a1,1,0,0,0,1,1h.427a.569.569,0,0,0,.569-.569V330.01a5.3,5.3,0,0,0-5.3-5.3,2.945,2.945,0,0,1-2.472-1.341,4.927,4.927,0,0,1-.676.485A1.421,1.421,0,0,0,258.341,326.425Z" transform="translate(-166.579 -300.37)"/><path class="c" d="M198.464,294.88a7.06,7.06,0,0,1-5.566,0,4.407,4.407,0,0,0,.08-1.168l.011-.026a7.055,7.055,0,0,0,5.383,0l.011.026A4.405,4.405,0,0,0,198.464,294.88Z" transform="translate(-106.701 -272.8)"/><path class="c" d="M122.008,1.406c-.67.276-.819.373-1.127.322C115.238.8,110.795,3.75,110.187,9.516a.866.866,0,0,1-.081.292,5.077,5.077,0,0,0-.347,2.617.884.884,0,0,1-1.766.074c0-.071,0,.116,0-3.044a9.844,9.844,0,0,1,2.646-7.185c3.048-2.938,7.878-2.7,11.377-1.126a.143.143,0,0,1,0,.262Z" transform="translate(-27.829 0)"/><path class="c" d="M138.243,137.154a1.124,1.124,0,0,1-1.023,1.991,7.042,7.042,0,0,1-4.425-6.538c0-1.3-.013-2.217-.018-3.015a3.464,3.464,0,0,1,.569-1.93.855.855,0,0,1,1.564.508c0,.8.018,1.714.018,3.015A6.99,6.99,0,0,0,138.243,137.154Z" transform="translate(-50.856 -118.229)"/></g></g><g class="d" transform="translate(1282 21)"><circle class="e" cx="19.5" cy="19.5" r="19.5"/><circle class="f" cx="19.5" cy="19.5" r="19"/></g></g></svg>